<svg width="23" height="25" viewBox="0 0 23 25" fill="none" xmlns="http://www.w3.org/2000/svg">
<path d="M6.99995 12.25C6.99985 12.1515 7.01921 12.054 7.05692 11.963C7.09464 11.872 7.14995 11.7894 7.2197 11.7198L14.7197 4.2198C15.0128 3.92673 15.4873 3.92673 15.7802 4.2198C16.0731 4.51286 16.0733 4.98742 15.7802 5.2803L8.81045 12.25L15.7802 19.2198C16.0733 19.5129 16.0733 19.9874 15.7802 20.2803C15.4871 20.5732 15.0126 20.5734 14.7197 20.2803L7.2197 12.7803C7.14995 12.7107 7.09464 12.6281 7.05692 12.5371C7.01921 12.4461 6.99985 12.3485 6.99995 12.25Z" fill="#BBC4C1"/>
</svg>
