<svg width="24" height="24" viewBox="0 0 24 24" fill="none" xmlns="http://www.w3.org/2000/svg">
<path d="M16.5 12C16.5001 12.0985 16.4808 12.196 16.4431 12.287C16.4054 12.378 16.35 12.4606 16.2803 12.5302L8.7803 20.0302C8.48723 20.3233 8.01267 20.3233 7.7198 20.0302C7.42692 19.7371 7.42673 19.2626 7.7198 18.9697L14.6895 12L7.7198 5.0302C7.42673 4.73714 7.42673 4.26258 7.7198 3.9697C8.01286 3.67683 8.48742 3.67664 8.7803 3.9697L16.2803 11.4697C16.35 11.5393 16.4054 11.6219 16.4431 11.7129C16.4808 11.8039 16.5001 11.9015 16.5 12Z" fill="#BBC4C1"/>
</svg>
