<svg width="5" height="9" viewBox="0 0 5 9" fill="none" xmlns="http://www.w3.org/2000/svg">
<path d="M3.49339e-05 4.30437C-1.29486e-05 4.25298 0.00909845 4.20208 0.0268451 4.15461C0.0445917 4.10713 0.0706236 4.06401 0.103446 4.02772L3.63286 0.114677C3.77077 -0.0382256 3.99409 -0.0382255 4.13192 0.114677C4.26974 0.267579 4.26983 0.515176 4.13192 0.667981L0.852035 4.30437L4.13192 7.94076C4.26983 8.09367 4.26983 8.34126 4.13192 8.49407C3.99401 8.64687 3.77068 8.64697 3.63286 8.49407L0.103446 4.58102C0.0706236 4.54474 0.0445917 4.50161 0.0268451 4.45414C0.00909844 4.40666 -1.29526e-05 4.35576 3.49339e-05 4.30437Z" fill="white"/>
</svg>
