<svg width="24" height="24" viewBox="0 0 24 24" fill="none" xmlns="http://www.w3.org/2000/svg">
<g clip-path="url(#clip0_4086_3670)">
<path d="M18.1776 17.8443C16.6362 17.8428 15.3854 19.0912 15.3839 20.6325C15.3824 22.1739 16.6308 23.4247 18.1722 23.4262C19.7136 23.4277 20.9643 22.1793 20.9658 20.638V20.6353C20.9644 19.0955 19.7173 17.8473 18.1776 17.8443ZM23.1278 4.4797C23.061 4.46676 22.9931 4.4602 22.9251 4.46009H5.93181L5.66267 2.65955C5.49499 1.46378 4.47216 0.574098 3.26466 0.57373H1.07655C0.481978 0.57373 0 1.05571 0 1.65028C0 2.24486 0.481978 2.72683 1.07655 2.72683H3.26734C3.33347 2.72636 3.39745 2.75024 3.44709 2.79393C3.49673 2.83761 3.52855 2.89805 3.53648 2.9637L5.19436 14.3267C5.42166 15.7706 6.66363 16.8358 8.12528 16.8404H19.3241C20.7313 16.8423 21.9454 15.8532 22.2281 14.4747L23.9802 5.74118C24.0931 5.15743 23.7115 4.59266 23.1278 4.4797ZM11.3404 20.5157C11.2749 19.0196 10.0401 17.8418 8.54245 17.847C7.00232 17.9092 5.80423 19.2082 5.86647 20.7483C5.92618 22.2261 7.12832 23.4007 8.60705 23.4262H8.67433C10.2143 23.3587 11.4079 22.0557 11.3404 20.5157Z" fill="white"/>
</g>
<defs>
<clipPath id="clip0_4086_3670">
<rect width="24" height="24" fill="white"/>
</clipPath>
</defs>
</svg>
