<svg width="24" height="24" viewBox="0 0 24 24" fill="none" xmlns="http://www.w3.org/2000/svg">
<g clip-path="url(#clip0_4055_3552)">
<path fill-rule="evenodd" clip-rule="evenodd" d="M12.3763 14.4139L18.0333 20.0709C18.2219 20.2531 18.4745 20.3539 18.7367 20.3516C18.9989 20.3493 19.2497 20.2441 19.4351 20.0587C19.6205 19.8733 19.7257 19.6225 19.728 19.3603C19.7302 19.0981 19.6294 18.8455 19.4473 18.6569L13.7903 12.9999L19.4473 7.34291C19.6294 7.1543 19.7302 6.9017 19.728 6.6395C19.7257 6.37731 19.6205 6.1265 19.4351 5.94109C19.2497 5.75568 18.9989 5.65051 18.7367 5.64823C18.4745 5.64595 18.2219 5.74675 18.0333 5.92891L12.3763 11.5859L6.71929 5.92891C6.52984 5.75125 6.2787 5.65427 6.01902 5.65849C5.75934 5.6627 5.51148 5.76779 5.3279 5.9515C5.14431 6.13521 5.03941 6.38314 5.03537 6.64283C5.03134 6.90251 5.1285 7.15358 5.30629 7.34291L10.9623 12.9999L5.30529 18.6569C5.20978 18.7492 5.1336 18.8595 5.08119 18.9815C5.02878 19.1035 5.00119 19.2347 5.00004 19.3675C4.99888 19.5003 5.02419 19.632 5.07447 19.7549C5.12475 19.8778 5.199 19.9894 5.29289 20.0833C5.38679 20.1772 5.49844 20.2514 5.62133 20.3017C5.74423 20.352 5.87591 20.3773 6.00869 20.3762C6.14147 20.375 6.27269 20.3474 6.39469 20.295C6.5167 20.2426 6.62704 20.1664 6.71929 20.0709L12.3763 14.4139Z" fill="#BBC4C1"/>
</g>
<defs>
<clipPath id="clip0_4055_3552">
<rect width="24" height="24" fill="white"/>
</clipPath>
</defs>
</svg>
