<svg width="24" height="24" viewBox="0 0 24 24" fill="none" xmlns="http://www.w3.org/2000/svg">
<path d="M20.0213 3H3.9788C3.57154 3.00032 3.17313 3.11885 2.83192 3.34119C2.49071 3.56353 2.22137 3.88013 2.05659 4.25257C1.89182 4.62501 1.83868 5.03727 1.90365 5.43931C1.96861 5.84136 2.14887 6.21591 2.42255 6.5175L9.37505 14.1638V21.375C9.37511 21.516 9.4149 21.6541 9.48985 21.7734C9.5648 21.8928 9.67187 21.9887 9.7988 22.05C9.90024 22.1 10.012 22.1257 10.1251 22.125C10.2955 22.1249 10.4608 22.0667 10.5938 21.96L12.0001 20.835L14.3438 18.96C14.4315 18.8898 14.5023 18.8008 14.551 18.6995C14.5997 18.5982 14.625 18.4874 14.6251 18.375V14.1638L21.5776 6.5175C21.8512 6.21591 22.0315 5.84136 22.0965 5.43931C22.1614 5.03727 22.1083 4.62501 21.9435 4.25257C21.7787 3.88013 21.5094 3.56353 21.1682 3.34119C20.827 3.11885 20.4286 3.00032 20.0213 3Z" fill="#0A363C"/>
</svg>
