<svg width="24" height="24" viewBox="0 0 24 24" fill="none" xmlns="http://www.w3.org/2000/svg">
<path d="M19 22.42H5C2.93 22.42 1.25 20.74 1.25 18.67V10.23C1.25 9.00999 1.85 7.85999 2.85 7.15999L9.85 2.25999C11.14 1.35999 12.87 1.35999 14.15 2.25999L21.15 7.15999C22.15 7.85999 22.75 9.00999 22.75 10.23V18.67C22.75 20.74 21.07 22.42 19 22.42ZM12 3.07999C11.55 3.07999 11.1 3.21999 10.71 3.48999L3.71 8.38999C3.11 8.80999 2.75 9.49999 2.75 10.23V18.67C2.75 19.91 3.76 20.92 5 20.92H19C20.24 20.92 21.25 19.91 21.25 18.67V10.23C21.25 9.49999 20.89 8.80999 20.29 8.38999L13.29 3.48999C12.9 3.21999 12.45 3.08999 12 3.08999V3.07999Z" fill="#FF9400"/>
<path d="M16 22.42H8C7.59 22.42 7.25 22.08 7.25 21.67V16.67C7.25 14.05 9.38 11.92 12 11.92C14.62 11.92 16.75 14.05 16.75 16.67V21.67C16.75 22.08 16.41 22.42 16 22.42ZM8.75 20.92H15.25V16.67C15.25 14.88 13.79 13.42 12 13.42C10.21 13.42 8.75 14.88 8.75 16.67V20.92Z" fill="#FF9400"/>
</svg>
