<svg width="48" height="48" viewBox="0 0 48 48" fill="none" xmlns="http://www.w3.org/2000/svg">
<rect x="0.500061" y="0.5" width="47" height="47" rx="7.5" stroke="#BBC4C1" stroke-opacity="0.12"/>
<g clip-path="url(#clip0_4021_274)">
<path d="M36.0001 24.073C36.0001 30.062 31.6061 35.027 25.8701 35.928V27.565H28.6591L29.1901 24.105H25.8701V21.86C25.8701 20.913 26.3341 19.991 27.8201 19.991H29.3291V17.045C29.3291 17.045 27.9591 16.811 26.6501 16.811C23.9161 16.811 22.1301 18.468 22.1301 21.467V24.104H19.0911V27.564H22.1301V35.927C16.3951 35.025 12.0001 30.061 12.0001 24.073C12.0001 17.446 17.3731 12.073 24.0001 12.073C30.6271 12.073 36.0001 17.445 36.0001 24.073Z" fill="#E0FFC7"/>
</g>
<defs>
<clipPath id="clip0_4021_274">
<rect width="24" height="24" fill="white" transform="translate(12.0001 12)"/>
</clipPath>
</defs>
</svg>
