<svg width="48" height="48" viewBox="0 0 48 48" fill="none" xmlns="http://www.w3.org/2000/svg">
<rect x="0.500061" y="0.5" width="47" height="47" rx="7.5" stroke="#BBC4C1" stroke-opacity="0.12"/>
<g clip-path="url(#clip0_4021_264)">
<path fill-rule="evenodd" clip-rule="evenodd" d="M24.0001 12C17.3731 12 12.0001 17.373 12.0001 24C12.0001 30.627 17.3731 36 24.0001 36C30.6271 36 36.0001 30.627 36.0001 24C36.0001 17.373 30.6271 12 24.0001 12ZM29.5621 20.161C29.3821 22.058 28.6001 26.663 28.2031 28.788C28.0351 29.688 27.7031 29.989 27.3831 30.018C26.6861 30.082 26.1571 29.557 25.4821 29.115C24.4261 28.423 23.8291 27.992 22.8041 27.316C21.6191 26.535 22.3871 26.106 23.0621 25.405C23.2391 25.221 26.3091 22.428 26.3691 22.175C26.3761 22.143 26.3841 22.025 26.3131 21.963C26.2421 21.901 26.1391 21.922 26.0651 21.939C25.9591 21.963 24.2721 23.078 21.0031 25.284C20.5241 25.613 20.0901 25.773 19.7011 25.765C19.2731 25.756 18.4491 25.523 17.8361 25.323C17.0851 25.079 16.4871 24.949 16.5391 24.535C16.5661 24.319 16.8631 24.098 17.4311 23.872C20.9291 22.348 23.2621 21.343 24.4291 20.857C27.7621 19.471 28.4541 19.23 28.9061 19.222C29.4721 19.214 29.6081 19.681 29.5621 20.161Z" fill="#E0FFC7"/>
</g>
<defs>
<clipPath id="clip0_4021_264">
<rect width="24" height="24" fill="white" transform="translate(12.0001 12)"/>
</clipPath>
</defs>
</svg>
