<svg width="48" height="48" viewBox="0 0 48 48" fill="none" xmlns="http://www.w3.org/2000/svg">
<rect x="0.500061" y="0.5" width="47" height="47" rx="7.5" stroke="#BBC4C1" stroke-opacity="0.12"/>
<g clip-path="url(#clip0_4021_268)">
<path d="M24.0001 14.162C27.2041 14.162 27.5841 14.174 28.8491 14.232C30.1571 14.292 31.5041 14.59 32.4571 15.543C33.4191 16.505 33.7081 17.839 33.7681 19.151C33.8261 20.416 33.8381 20.796 33.8381 24C33.8381 27.204 33.8261 27.584 33.7681 28.849C33.7091 30.15 33.4041 31.51 32.4571 32.457C31.4951 33.419 30.1621 33.708 28.8491 33.768C27.5841 33.826 27.2041 33.838 24.0001 33.838C20.7961 33.838 20.4161 33.826 19.1511 33.768C17.8601 33.709 16.4821 33.397 15.5431 32.457C14.5861 31.5 14.2921 30.153 14.2321 28.849C14.1741 27.584 14.1621 27.204 14.1621 24C14.1621 20.796 14.1741 20.416 14.2321 19.151C14.2911 17.855 14.5991 16.487 15.5431 15.543C16.5031 14.583 17.8421 14.292 19.1511 14.232C20.4161 14.174 20.7961 14.162 24.0001 14.162ZM24.0001 12C20.7411 12 20.3321 12.014 19.0521 12.072C17.1971 12.157 15.3551 12.673 14.0141 14.014C12.6681 15.36 12.1571 17.198 12.0721 19.052C12.0141 20.332 12.0001 20.741 12.0001 24C12.0001 27.259 12.0141 27.668 12.0721 28.948C12.1571 30.801 12.6751 32.648 14.0141 33.986C15.3591 35.331 17.2001 35.843 19.0521 35.928C20.3321 35.986 20.7411 36 24.0001 36C27.2591 36 27.6681 35.986 28.9481 35.928C30.8021 35.843 32.6461 35.326 33.9861 33.986C35.3331 32.639 35.8431 30.802 35.9281 28.948C35.9861 27.668 36.0001 27.259 36.0001 24C36.0001 20.741 35.9861 20.332 35.9281 19.052C35.8431 17.197 35.3261 15.354 33.9861 14.014C32.6431 12.671 30.7971 12.156 28.9481 12.072C27.6681 12.014 27.2591 12 24.0001 12Z" fill="#E0FFC7"/>
<path d="M24.0001 17.8379C20.5971 17.8379 17.8381 20.5969 17.8381 23.9999C17.8381 27.4029 20.5971 30.1619 24.0001 30.1619C27.4031 30.1619 30.1621 27.4029 30.1621 23.9999C30.1621 20.5969 27.4031 17.8379 24.0001 17.8379ZM24.0001 27.9999C21.7911 27.9999 20.0001 26.2089 20.0001 23.9999C20.0001 21.7909 21.7911 19.9999 24.0001 19.9999C26.2091 19.9999 28.0001 21.7909 28.0001 23.9999C28.0001 26.2089 26.2091 27.9999 24.0001 27.9999Z" fill="#E0FFC7"/>
<path d="M30.4061 19.0341C31.2014 19.0341 31.8461 18.3893 31.8461 17.5941C31.8461 16.7988 31.2014 16.1541 30.4061 16.1541C29.6108 16.1541 28.9661 16.7988 28.9661 17.5941C28.9661 18.3893 29.6108 19.0341 30.4061 19.0341Z" fill="#E0FFC7"/>
</g>
<defs>
<clipPath id="clip0_4021_268">
<rect width="24" height="24" fill="white" transform="translate(12.0001 12)"/>
</clipPath>
</defs>
</svg>
