<svg width="24" height="24" viewBox="0 0 24 24" fill="none" xmlns="http://www.w3.org/2000/svg">
<path d="M21.4285 21.4286H9.42852C8.91423 21.4286 8.57138 21.0857 8.57138 20.5714V17.1429C8.57138 16.6286 8.91423 16.2857 9.42852 16.2857H21.4285C21.9428 16.2857 22.2857 16.6286 22.2857 17.1429V20.5714C22.2857 21.0857 21.9428 21.4286 21.4285 21.4286ZM5.99995 21.4286H2.57138C2.05709 21.4286 1.71423 21.0857 1.71423 20.5714V17.1429C1.71423 16.6286 2.05709 16.2857 2.57138 16.2857H5.99995C6.51423 16.2857 6.85709 16.6286 6.85709 17.1429V20.5714C6.85709 21.0857 6.51423 21.4286 5.99995 21.4286ZM21.4285 14.5714H9.42852C8.91423 14.5714 8.57138 14.2286 8.57138 13.7143V10.2857C8.57138 9.77143 8.91423 9.42857 9.42852 9.42857H21.4285C21.9428 9.42857 22.2857 9.77143 22.2857 10.2857V13.7143C22.2857 14.2286 21.9428 14.5714 21.4285 14.5714ZM5.99995 14.5714H2.57138C2.05709 14.5714 1.71423 14.2286 1.71423 13.7143V10.2857C1.71423 9.77143 2.05709 9.42857 2.57138 9.42857H5.99995C6.51423 9.42857 6.85709 9.77143 6.85709 10.2857V13.7143C6.85709 14.2286 6.51423 14.5714 5.99995 14.5714ZM21.4285 7.71428H9.42852C8.91423 7.71428 8.57138 7.37143 8.57138 6.85714V3.42857C8.57138 2.91428 8.91423 2.57143 9.42852 2.57143H21.4285C21.9428 2.57143 22.2857 2.91428 22.2857 3.42857V6.85714C22.2857 7.37143 21.9428 7.71428 21.4285 7.71428ZM5.99995 7.71428H2.57138C2.05709 7.71428 1.71423 7.37143 1.71423 6.85714V3.42857C1.71423 2.91428 2.05709 2.57143 2.57138 2.57143H5.99995C6.51423 2.57143 6.85709 2.91428 6.85709 3.42857V6.85714C6.85709 7.37143 6.51423 7.71428 5.99995 7.71428Z" fill="white"/>
</svg>
