<svg width="24" height="25" viewBox="0 0 24 25" fill="none" xmlns="http://www.w3.org/2000/svg">
<g clip-path="url(#clip0_4002_451)">
<path d="M12.003 0.5H11.997C5.3805 0.5 0 5.882 0 12.5C0 15.125 0.846 17.558 2.2845 19.5335L0.789 23.9915L5.4015 22.517C7.299 23.774 9.5625 24.5 12.003 24.5C18.6195 24.5 24 19.1165 24 12.5C24 5.8835 18.6195 0.5 12.003 0.5Z" fill="#4CAF50"/>
<path d="M18.9855 17.4455C18.696 18.263 17.547 18.941 16.6305 19.139C16.0035 19.2725 15.1845 19.379 12.4275 18.236C8.901 16.775 6.63 13.1915 6.453 12.959C6.2835 12.7265 5.028 11.0615 5.028 9.33953C5.028 7.61753 5.9025 6.77903 6.255 6.41903C6.5445 6.12353 7.023 5.98853 7.482 5.98853C7.6305 5.98853 7.764 5.99603 7.884 6.00203C8.2365 6.01703 8.4135 6.03803 8.646 6.59453C8.9355 7.29203 9.6405 9.01403 9.7245 9.19103C9.81 9.36803 9.8955 9.60803 9.7755 9.84053C9.663 10.0805 9.564 10.187 9.387 10.391C9.21 10.595 9.042 10.751 8.865 10.97C8.703 11.1605 8.52 11.3645 8.724 11.717C8.928 12.062 9.633 13.2125 10.671 14.1365C12.0105 15.329 13.0965 15.71 13.485 15.872C13.7745 15.992 14.1195 15.9635 14.331 15.7385C14.5995 15.449 14.931 14.969 15.2685 14.4965C15.5085 14.1575 15.8115 14.1155 16.1295 14.2355C16.4535 14.348 18.168 15.1955 18.5205 15.371C18.873 15.548 19.1055 15.632 19.191 15.7805C19.275 15.929 19.275 16.6265 18.9855 17.4455Z" fill="#FAFAFA"/>
</g>
<defs>
<clipPath id="clip0_4002_451">
<rect width="24" height="24" fill="white" transform="translate(0 0.5)"/>
</clipPath>
</defs>
</svg>
