<svg width="105" height="21" viewBox="0 0 105 21" fill="none" xmlns="http://www.w3.org/2000/svg">
<path d="M4.28433 10.754C4.28433 11.366 4.35633 11.918 4.50033 12.41C4.65633 12.902 4.87233 13.328 5.14833 13.688C5.43633 14.036 5.78433 14.306 6.19233 14.498C6.60033 14.69 7.06833 14.786 7.59633 14.786C8.11233 14.786 8.57433 14.69 8.98233 14.498C9.40233 14.306 9.75033 14.036 10.0263 13.688C10.3143 13.328 10.5303 12.902 10.6743 12.41C10.8303 11.918 10.9083 11.366 10.9083 10.754C10.9083 10.142 10.8303 9.59 10.6743 9.098C10.5303 8.594 10.3143 8.168 10.0263 7.82C9.75033 7.46 9.40233 7.184 8.98233 6.992C8.57433 6.8 8.11233 6.704 7.59633 6.704C7.06833 6.704 6.60033 6.806 6.19233 7.01C5.78433 7.202 5.43633 7.478 5.14833 7.838C4.87233 8.186 4.65633 8.612 4.50033 9.116C4.35633 9.608 4.28433 10.154 4.28433 10.754ZM13.8063 10.754C13.8063 11.822 13.6443 12.764 13.3203 13.58C13.0083 14.384 12.5763 15.062 12.0243 15.614C11.4723 16.154 10.8123 16.562 10.0443 16.838C9.28833 17.114 8.47233 17.252 7.59633 17.252C6.74433 17.252 5.94033 17.114 5.18433 16.838C4.42833 16.562 3.76833 16.154 3.20433 15.614C2.64033 15.062 2.19633 14.384 1.87233 13.58C1.54833 12.764 1.38633 11.822 1.38633 10.754C1.38633 9.686 1.55433 8.75 1.89033 7.946C2.22633 7.13 2.67633 6.446 3.24033 5.894C3.81633 5.342 4.47633 4.928 5.22033 4.652C5.97633 4.376 6.76833 4.238 7.59633 4.238C8.44833 4.238 9.25233 4.376 10.0083 4.652C10.7643 4.928 11.4243 5.342 11.9883 5.894C12.5523 6.446 12.9963 7.13 13.3203 7.946C13.6443 8.75 13.8063 9.686 13.8063 10.754ZM15.967 7.856C16.423 7.724 17.011 7.604 17.731 7.496C18.451 7.376 19.207 7.316 19.999 7.316C20.803 7.316 21.469 7.424 21.997 7.64C22.537 7.844 22.963 8.138 23.275 8.522C23.587 8.906 23.809 9.362 23.941 9.89C24.073 10.418 24.139 11.006 24.139 11.654V17H21.457V11.978C21.457 11.114 21.343 10.502 21.115 10.142C20.887 9.782 20.461 9.602 19.837 9.602C19.645 9.602 19.441 9.614 19.225 9.638C19.009 9.65 18.817 9.668 18.649 9.692V17H15.967V7.856ZM30.3466 17.18C29.5666 17.168 28.9306 17.084 28.4386 16.928C27.9586 16.772 27.5746 16.556 27.2866 16.28C27.0106 15.992 26.8186 15.65 26.7106 15.254C26.6146 14.846 26.5666 14.39 26.5666 13.886V3.464L29.2486 3.032V13.346C29.2486 13.586 29.2666 13.802 29.3026 13.994C29.3386 14.186 29.4046 14.348 29.5006 14.48C29.6086 14.612 29.7586 14.72 29.9506 14.804C30.1426 14.888 30.4006 14.942 30.7246 14.966L30.3466 17.18ZM34.944 17H32.262V7.532H34.944V17ZM35.196 4.796C35.196 5.288 35.034 5.678 34.71 5.966C34.398 6.242 34.026 6.38 33.594 6.38C33.162 6.38 32.784 6.242 32.46 5.966C32.148 5.678 31.992 5.288 31.992 4.796C31.992 4.304 32.148 3.92 32.46 3.644C32.784 3.356 33.162 3.212 33.594 3.212C34.026 3.212 34.398 3.356 34.71 3.644C35.034 3.92 35.196 4.304 35.196 4.796ZM37.4651 7.856C37.9211 7.724 38.5091 7.604 39.2291 7.496C39.9491 7.376 40.7051 7.316 41.4971 7.316C42.3011 7.316 42.9671 7.424 43.4951 7.64C44.0351 7.844 44.4611 8.138 44.7731 8.522C45.0851 8.906 45.3071 9.362 45.4391 9.89C45.5711 10.418 45.6371 11.006 45.6371 11.654V17H42.9551V11.978C42.9551 11.114 42.8411 10.502 42.6131 10.142C42.3851 9.782 41.9591 9.602 41.3351 9.602C41.1431 9.602 40.9391 9.614 40.7231 9.638C40.5071 9.65 40.3151 9.668 40.1471 9.692V17H37.4651V7.856ZM47.6147 12.338C47.6147 11.498 47.7407 10.766 47.9927 10.142C48.2567 9.506 48.5987 8.978 49.0187 8.558C49.4387 8.138 49.9187 7.82 50.4587 7.604C51.0107 7.388 51.5747 7.28 52.1507 7.28C53.4947 7.28 54.5567 7.694 55.3367 8.522C56.1167 9.338 56.5067 10.544 56.5067 12.14C56.5067 12.296 56.5007 12.47 56.4887 12.662C56.4767 12.842 56.4647 13.004 56.4527 13.148H50.3687C50.4287 13.7 50.6867 14.138 51.1427 14.462C51.5987 14.786 52.2107 14.948 52.9787 14.948C53.4707 14.948 53.9507 14.906 54.4187 14.822C54.8987 14.726 55.2887 14.612 55.5887 14.48L55.9487 16.658C55.8047 16.73 55.6127 16.802 55.3727 16.874C55.1327 16.946 54.8627 17.006 54.5627 17.054C54.2747 17.114 53.9627 17.162 53.6267 17.198C53.2907 17.234 52.9547 17.252 52.6187 17.252C51.7667 17.252 51.0227 17.126 50.3867 16.874C49.7627 16.622 49.2407 16.28 48.8207 15.848C48.4127 15.404 48.1067 14.882 47.9027 14.282C47.7107 13.682 47.6147 13.034 47.6147 12.338ZM53.9147 11.312C53.9027 11.084 53.8607 10.862 53.7887 10.646C53.7287 10.43 53.6267 10.238 53.4827 10.07C53.3507 9.902 53.1767 9.764 52.9607 9.656C52.7567 9.548 52.4987 9.494 52.1867 9.494C51.8867 9.494 51.6287 9.548 51.4127 9.656C51.1967 9.752 51.0167 9.884 50.8727 10.052C50.7287 10.22 50.6147 10.418 50.5307 10.646C50.4587 10.862 50.4047 11.084 50.3687 11.312H53.9147ZM66.4826 14.858C66.8786 14.858 67.2026 14.828 67.4546 14.768C67.7186 14.696 67.9286 14.606 68.0846 14.498C68.2406 14.378 68.3486 14.24 68.4086 14.084C68.4686 13.928 68.4986 13.754 68.4986 13.562C68.4986 13.154 68.3066 12.818 67.9226 12.554C67.5386 12.278 66.8786 11.984 65.9426 11.672C65.5346 11.528 65.1266 11.366 64.7186 11.186C64.3106 10.994 63.9446 10.76 63.6206 10.484C63.2966 10.196 63.0326 9.854 62.8286 9.458C62.6246 9.05 62.5226 8.558 62.5226 7.982C62.5226 7.406 62.6306 6.89 62.8466 6.434C63.0626 5.966 63.3686 5.57 63.7646 5.246C64.1606 4.922 64.6406 4.676 65.2046 4.508C65.7686 4.328 66.4046 4.238 67.1126 4.238C67.9526 4.238 68.6786 4.328 69.2906 4.508C69.9026 4.688 70.4066 4.886 70.8026 5.102L69.9926 7.316C69.6446 7.136 69.2546 6.98 68.8226 6.848C68.4026 6.704 67.8926 6.632 67.2926 6.632C66.6206 6.632 66.1346 6.728 65.8346 6.92C65.5466 7.1 65.4026 7.382 65.4026 7.766C65.4026 7.994 65.4566 8.186 65.5646 8.342C65.6726 8.498 65.8226 8.642 66.0146 8.774C66.2186 8.894 66.4466 9.008 66.6986 9.116C66.9626 9.212 67.2506 9.314 67.5626 9.422C68.2106 9.662 68.7746 9.902 69.2546 10.142C69.7346 10.37 70.1306 10.64 70.4426 10.952C70.7666 11.264 71.0066 11.63 71.1626 12.05C71.3186 12.47 71.3966 12.98 71.3966 13.58C71.3966 14.744 70.9886 15.65 70.1726 16.298C69.3566 16.934 68.1266 17.252 66.4826 17.252C65.9306 17.252 65.4326 17.216 64.9886 17.144C64.5446 17.084 64.1486 17.006 63.8006 16.91C63.4646 16.814 63.1706 16.712 62.9186 16.604C62.6786 16.496 62.4746 16.394 62.3066 16.298L63.0986 14.066C63.4706 14.27 63.9266 14.456 64.4666 14.624C65.0186 14.78 65.6906 14.858 66.4826 14.858ZM73.3772 17V3.464L76.0592 3.032V7.568C76.2392 7.508 76.4672 7.454 76.7432 7.406C77.0312 7.346 77.3072 7.316 77.5712 7.316C78.3392 7.316 78.9752 7.424 79.4792 7.64C79.9952 7.844 80.4032 8.138 80.7032 8.522C81.0152 8.906 81.2312 9.362 81.3512 9.89C81.4832 10.418 81.5492 11.006 81.5492 11.654V17H78.8672V11.978C78.8672 11.114 78.7532 10.502 78.5252 10.142C78.3092 9.782 77.9012 9.602 77.3012 9.602C77.0612 9.602 76.8332 9.626 76.6172 9.674C76.4132 9.71 76.2272 9.752 76.0592 9.8V17H73.3772ZM92.8328 12.248C92.8328 12.992 92.7248 13.676 92.5088 14.3C92.2928 14.912 91.9808 15.44 91.5728 15.884C91.1648 16.316 90.6728 16.652 90.0968 16.892C89.5328 17.132 88.8968 17.252 88.1888 17.252C87.4928 17.252 86.8568 17.132 86.2808 16.892C85.7168 16.652 85.2308 16.316 84.8228 15.884C84.4148 15.44 84.0968 14.912 83.8688 14.3C83.6408 13.676 83.5268 12.992 83.5268 12.248C83.5268 11.504 83.6408 10.826 83.8688 10.214C84.1088 9.602 84.4328 9.08 84.8408 8.648C85.2608 8.216 85.7528 7.88 86.3168 7.64C86.8928 7.4 87.5168 7.28 88.1888 7.28C88.8728 7.28 89.4968 7.4 90.0608 7.64C90.6368 7.88 91.1288 8.216 91.5368 8.648C91.9448 9.08 92.2628 9.602 92.4908 10.214C92.7188 10.826 92.8328 11.504 92.8328 12.248ZM90.0968 12.248C90.0968 11.42 89.9288 10.772 89.5928 10.304C89.2688 9.824 88.8008 9.584 88.1888 9.584C87.5768 9.584 87.1028 9.824 86.7668 10.304C86.4308 10.772 86.2628 11.42 86.2628 12.248C86.2628 13.076 86.4308 13.736 86.7668 14.228C87.1028 14.708 87.5768 14.948 88.1888 14.948C88.8008 14.948 89.2688 14.708 89.5928 14.228C89.9288 13.736 90.0968 13.076 90.0968 12.248ZM100.976 12.338C100.976 11.51 100.79 10.85 100.418 10.358C100.046 9.854 99.4944 9.602 98.7624 9.602C98.5224 9.602 98.3004 9.614 98.0964 9.638C97.8924 9.65 97.7244 9.668 97.5924 9.692V14.534C97.7604 14.642 97.9764 14.732 98.2404 14.804C98.5164 14.876 98.7924 14.912 99.0684 14.912C100.34 14.912 100.976 14.054 100.976 12.338ZM103.712 12.266C103.712 12.998 103.622 13.664 103.442 14.264C103.262 14.864 102.998 15.38 102.65 15.812C102.302 16.244 101.87 16.58 101.354 16.82C100.838 17.06 100.244 17.18 99.5724 17.18C99.2004 17.18 98.8524 17.144 98.5284 17.072C98.2044 17 97.8924 16.898 97.5924 16.766V20.33H94.9104V7.856C95.1504 7.784 95.4264 7.718 95.7384 7.658C96.0504 7.586 96.3744 7.526 96.7104 7.478C97.0584 7.43 97.4064 7.394 97.7544 7.37C98.1144 7.334 98.4564 7.316 98.7804 7.316C99.5604 7.316 100.256 7.436 100.868 7.676C101.48 7.904 101.996 8.234 102.416 8.666C102.836 9.086 103.154 9.602 103.37 10.214C103.598 10.826 103.712 11.51 103.712 12.266Z" fill="#FF9400"/>
</svg>
